<svg version="1.1" viewBox="0 0 100 100" xmlns="http://www.w3.org/2000/svg">
    <symbol viewBox="0 0 100 100" id="bar" >
        <path d="m90 73.333v6.6667q0 1.3542-0.98958 2.3437-0.98959 0.98958-2.3438 0.98958h-73.333q-1.3542 0-2.3437-0.98958t-0.98958-2.3437v-6.6667q0-1.3542 0.98958-2.3438 0.98958-0.98958 2.3437-0.98958h73.333q1.3542 0 2.3438 0.98958 0.98958 0.98958 0.98958 2.3438zm0-26.667v6.6667q0 1.3542-0.98958 2.3437-0.98959 0.98958-2.3438 0.98958h-73.333q-1.3542 0-2.3437-0.98958-0.98958-0.98958-0.98958-2.3437v-6.6667q0-1.3542 0.98958-2.3438t2.3437-0.98958h73.333q1.3542 0 2.3438 0.98958 0.98958 0.98958 0.98958 2.3438zm0-26.667v6.6667q0 1.3542-0.98958 2.3437-0.98959 0.98958-2.3438 0.98958h-73.333q-1.3542 0-2.3437-0.98958t-0.98958-2.3437v-6.6667q0-1.3542 0.98958-2.3438 0.98958-0.98958 2.3437-0.98958h73.333q1.3542 0 2.3438 0.98958 0.98958 0.98958 0.98958 2.3438z" stroke-width="2.3333"/>
    </symbol>
</svg>
