<svg version="1.1" viewBox="0 0 100 100" xmlns="http://www.w3.org/2000/svg">
    <symbol viewBox="0 0 100 100" id="clock">
        <path d="m56.667 31.667v23.333q0 0.72917-0.46875 1.1979-0.46875 0.46875-1.1979 0.46875h-16.667q-0.72917 0-1.1979-0.46875-0.46875-0.46875-0.46875-1.1979v-3.3333q0-0.72917 0.46875-1.1979 0.46875-0.46875 1.1979-0.46875h11.667v-18.333q0-0.72917 0.46875-1.1979 0.46875-0.46875 1.1979-0.46875h3.3333q0.72917 0 1.1979 0.46875 0.46875 0.46875 0.46875 1.1979zm17.865 32.552q3.8021-6.5104 3.8021-14.219 0-7.7083-3.8021-14.219-3.8021-6.5104-10.313-10.313-6.5104-3.8021-14.219-3.8021-7.7083 0-14.219 3.8021-6.5104 3.8021-10.313 10.313-3.8021 6.5104-3.8021 14.219 0 7.7083 3.8021 14.219 3.8021 6.5104 10.313 10.313 6.5104 3.8021 14.219 3.8021 7.7083 0 14.219-3.8021 6.5104-3.8021 10.313-10.313zm10.104-34.271q5.3646 9.1667 5.3646 20.052 0 10.885-5.3646 20.104-5.3646 9.1667-14.583 14.531-9.1667 5.3646-20.052 5.3646-10.885 0-20.104-5.3646-9.1667-5.3646-14.531-14.531-5.3646-9.2188-5.3646-20.104 0-10.885 5.3646-20.052 5.3646-9.2188 14.531-14.583 9.2188-5.3646 20.104-5.3646 10.885 0 20.052 5.3646 9.2188 5.3646 14.583 14.583z" stroke-width="2.3333"/>
    </symbol>
</svg>
