<svg version="1.1" viewBox="0 0 100 100" xmlns="http://www.w3.org/2000/svg">
    <symbol viewBox="0 0 100 100" id="mobile">
        <path d="m53.5 85.563q1.5-1.5 1.5-3.5625 0-2.0625-1.5-3.5-1.4375-1.5-3.5-1.5-2.0625 0-3.5625 1.5-1.4375 1.4375-1.4375 3.5 0 2.0625 1.4375 3.5625 1.5 1.4375 3.5625 1.4375 2.0625 0 3.5-1.4375zm14.5-13.563v-44q0-0.8125-0.625-1.375-0.5625-0.625-1.375-0.625h-32q-0.8125 0-1.4375 0.625-0.5625 0.5625-0.5625 1.375v44q0 0.8125 0.5625 1.4375 0.625 0.5625 1.4375 0.5625h32q0.8125 0 1.375-0.5625 0.625-0.625 0.625-1.4375zm-13-52q1 0 1-1 0-1-1-1h-10q-1 0-1 1 0 1 1 1zm19-2v64q0 3.25-2.375 5.625-2.375 2.375-5.625 2.375h-32q-3.25 0-5.625-2.375-2.375-2.375-2.375-5.625v-64q0-3.25 2.375-5.625 2.375-2.375 5.625-2.375h32q3.25 0 5.625 2.375 2.375 2.375 2.375 5.625z" stroke-width="2.8"/>
    </symbol>
</svg>
