<svg version="1.1" viewBox="0 0 100 100" xmlns="http://www.w3.org/2000/svg">
    <symbol viewBox="0 0 100 100" id="pinterest">
        <path d="m19.231 38.702q0-5.1923 1.7788-9.7596 1.8269-4.6154 5-8.0288 3.1731-3.4135 7.3077-5.9135 4.1346-2.5 8.8942-3.75 4.7596-1.25 9.7115-1.25 7.5962 0 14.135 3.2212 6.5385 3.1731 10.625 9.2788 4.0865 6.1058 4.0865 13.798 0 4.6154-0.91346 9.0385-0.91346 4.4231-2.8846 8.5096-1.9712 4.0865-4.8077 7.2115-2.8365 3.0769-6.9712 4.9519-4.1346 1.8269-9.0865 1.8269-3.2692 0-6.4904-1.5385-3.2212-1.5385-4.6154-4.2308-0.48077 1.875-1.3462 5.4327-0.86539 3.5096-1.1538 4.5673-0.24038 1.0096-0.96154 3.4135-0.72116 2.3558-1.25 3.4135-0.52885 1.0096-1.5385 2.9808-1.0096 1.9712-2.2115 3.7019-1.2019 1.7788-2.9808 4.1827l-0.67308 0.24038-0.43269-0.48077q-0.72116-7.5481-0.72116-9.0385 0-4.4231 1.0096-9.9038 1.0577-5.5288 3.2212-13.846 2.1635-8.3173 2.5-9.7596-1.5385-3.125-1.5385-8.125 0-3.9904 2.5-7.5 2.5-3.5096 6.3462-3.5096 2.9327 0 4.5673 1.9712 1.6346 1.9231 1.6346 4.9038 0 3.1731-2.1154 9.1827-2.1154 6.0096-2.1154 8.9904 0 3.0288 2.1635 5.0481 2.1635 1.9712 5.2404 1.9712 2.6442 0 4.9038-1.2019t3.75-3.2692q1.5385-2.0673 2.6923-4.5673 1.2019-2.5 1.8269-5.2885 0.67308-2.8365 0.96154-5.3365 0.33654-2.5481 0.33654-4.8077 0-8.3173-5.2885-12.933-5.2404-4.6635-13.702-4.6635-9.6154 0-16.058 6.25-6.4423 6.2019-6.4423 15.769 0 2.1154 0.57692 4.0865 0.625 1.9712 1.2981 3.125 0.72115 1.1538 1.2981 2.2115 0.625 1.0096 0.625 1.4423 0 1.3462-0.72115 3.5096-0.72116 2.1635-1.7788 2.1635-0.09615 0-0.81731-0.14422-2.4519-0.72115-4.375-2.6923-1.875-1.9712-2.9327-4.5192-1.0096-2.5962-1.5385-5.1923-0.52885-2.6442-0.52885-5.1442z" stroke-width="2.1538"/>
    </symbol>
</svg>
