<svg version="1.1" viewBox="0 0 100 100" xmlns="http://www.w3.org/2000/svg">
    <symbol viewBox="0 0 100 100" id="search">
        <path d="m59.038 59.087q6.3462-6.3462 6.3462-15.24 0-8.8942-6.3462-15.192-6.2981-6.3462-15.192-6.3462-8.8942 0-15.24 6.3462-6.2981 6.2981-6.2981 15.192 0 8.8942 6.2981 15.24 6.3462 6.2981 15.24 6.2981 8.8942 0 15.192-6.2981zm30.962 24.76q0 2.5-1.8269 4.3269-1.8269 1.8269-4.3269 1.8269-2.5962 0-4.3269-1.8269l-16.49-16.442q-8.6058 5.9615-19.183 5.9615-6.875 0-13.173-2.6442-6.25-2.6923-10.817-7.2115-4.5192-4.5673-7.2115-10.817-2.6442-6.2981-2.6442-13.173 0-6.875 2.6442-13.125 2.6923-6.2981 7.2115-10.817 4.5673-4.5673 10.817-7.2115 6.2981-2.6923 13.173-2.6923 6.875 0 13.125 2.6923 6.2981 2.6442 10.817 7.2115 4.5673 4.5192 7.2115 10.817 2.6923 6.25 2.6923 13.125 0 10.577-5.9615 19.183l16.49 16.49q1.7788 1.7788 1.7788 4.3269z" stroke-width="2.1538"/>
    </symbol>
</svg>
