<svg version="1.1" viewBox="0 0 100 100" xmlns="http://www.w3.org/2000/svg">
    <symbol viewBox="0 0 100 100" id="shop-cart">
        <path d="m38.942 73.365q1.8269 1.8269 1.8269 4.3269 0 2.5-1.8269 4.3269-1.8269 1.8269-4.3269 1.8269-2.5 0-4.3269-1.8269-1.8269-1.8269-1.8269-4.3269 0-2.5 1.8269-4.3269 1.8269-1.8269 4.3269-1.8269 2.5 0 4.3269 1.8269zm43.077 0q1.8269 1.8269 1.8269 4.3269 0 2.5-1.8269 4.3269-1.8269 1.8269-4.3269 1.8269t-4.3269-1.8269q-1.8269-1.8269-1.8269-4.3269 0-2.5 1.8269-4.3269 1.8269-1.8269 4.3269-1.8269t4.3269 1.8269zm7.9808-47.981v24.615q0 1.1538-0.81731 2.0673-0.76923 0.86538-1.9231 1.0096l-50.192 5.8654q0.625 2.8846 0.625 3.3654 0 0.76923-1.1538 3.0769h44.231q1.25 0 2.1635 0.91346 0.91346 0.91346 0.91346 2.1635t-0.91346 2.1635-2.1635 0.91346h-49.231q-1.25 0-2.1635-0.91346-0.91346-0.91346-0.91346-2.1635 0-0.52885 0.38462-1.4904 0.38461-1.0096 0.76923-1.7308 0.38461-0.76923 1.0096-1.9231 0.67308-1.2019 0.76923-1.4423l-8.5096-39.567h-9.8077q-1.25 0-2.1635-0.91346t-0.91346-2.1635q0-1.25 0.91346-2.1635 0.91346-0.91346 2.1635-0.91346h12.308q0.76923 0 1.3462 0.33654 0.625 0.28846 0.96154 0.72116 0.33654 0.43269 0.625 1.2019 0.28846 0.72115 0.38462 1.25 0.09615 0.48077 0.24038 1.3942 0.19232 0.91346 0.24038 1.25h57.74q1.25 0 2.1635 0.91346 0.91346 0.91346 0.91346 2.1635z" stroke-width="2.1538"/>
    </symbol>
</svg>
