<svg version="1.1" viewBox="0 0 100 100" xmlns="http://www.w3.org/2000/svg">
    <symbol viewBox="0 0 100 100" id="twitter">
        <path d="m90 25.228q-3.401 4.9746-8.2233 8.4772 0.05076 0.71066 0.05076 2.132 0 6.599-1.9289 13.198-1.9289 6.5482-5.8883 12.589-3.9086 6.0406-9.3401 10.711-5.4315 4.6193-13.096 7.4112-7.665 2.7411-16.396 2.7411-13.756 0-25.178-7.3604 1.7766 0.20306 3.9594 0.20306 11.421 0 20.355-7.0051-5.3299-0.10152-9.5431-3.2487-4.2132-3.198-5.7868-8.1218 1.6751 0.25381 3.0964 0.25381 2.1827 0 4.3147-0.55838-5.6853-1.1675-9.4416-5.6345-3.7056-4.5178-3.7056-10.457v-0.20306q3.4518 1.9289 7.4112 2.0812-3.3503-2.2335-5.3299-5.8376-1.9797-3.6041-1.9797-7.8173 0-4.467 2.2335-8.2741 6.1421 7.5635 14.924 12.132 8.8325 4.5178 18.883 5.0254-0.40609-1.9289-0.40609-3.7563 0-6.802 4.7716-11.574 4.8223-4.8223 11.624-4.8223 7.1066 0 11.98 5.1777 5.533-1.066 10.406-3.9594-1.8782 5.8376-7.2081 9.0355 4.7208-0.50762 9.4416-2.5381z" stroke-width="2.2741"/>
    </symbol>
</svg>
