<svg version="1.1" viewBox="0 0 100 100" xmlns="http://www.w3.org/2000/svg">
    <symbol viewBox="0 0 100 100" id="vimeo">
        <path d="m89.958 31.431q-0.49145 11.598-16.316 31.993-16.365 21.181-27.619 21.181-6.9785 0-11.795-12.925-2.1624-7.8632-6.4871-23.688-3.5384-12.876-7.7157-12.876-0.88461 0-6.2414 3.735l-3.7841-4.8162q1.1795-1.032 5.3076-4.7179 4.1282-3.735 6.3888-5.7008 7.6666-6.782 11.844-7.1751 4.6687-0.4423 7.5191 2.7521 2.8504 3.1453 3.9807 9.9764 2.1624 14.105 3.2435 18.331 2.703 12.237 5.8974 12.237 2.5064 0 7.5683-7.9123 4.9636-7.9123 5.3568-12.09 0.63888-6.8311-5.3568-6.8311-2.8012 0-5.9465 1.2778 5.8974-19.314 22.557-18.773 12.335 0.39316 11.598 16.021z" stroke-width="2.2017"/>
    </symbol>
</svg>
